<?xml version="1.0" encoding="utf-8"?>
<svg viewBox="0 0 500 500" xmlns="http://www.w3.org/2000/svg">
  <g fill="#E0E0E0" transform="matrix(0.731304, 0, 0, 0.731304, 9.669249, 49.186554)" style="">
    <path d="m481.46 107.29h-8.5469l-23.223-40.238c-3.6172-6.3555-8.8633-11.629-15.195-15.285s-13.523-5.5625-20.832-5.5156c-4.1367-0.007813-8.25 0.58984-12.215 1.7695l-4.293-7.4492c-3.6172-6.3438-8.8555-11.613-15.18-15.27-6.3203-3.6562-13.504-5.5664-20.805-5.5312-5.9883-0.015625-11.91 1.2539-17.363 3.7227l-1.5469-2.668c-4.8906-8.4727-12.609-14.953-21.805-18.301-9.1914-3.3477-19.273-3.3477-28.465 0-9.1953 3.3477-16.914 9.8281-21.805 18.301l-49.969 86.465h-1.6875c-16.688 0.042969-32.676 6.6953-44.469 18.496-11.797 11.801-18.434 27.797-18.469 44.48v296.9c0.011719 14.324 5.7031 28.055 15.828 38.188 10.121 10.129 23.852 15.832 38.172 15.855h64.055c4.8125 11.531 12.941 21.375 23.355 28.281 10.414 6.9062 22.645 10.566 35.141 10.512h36.637c12.496 0.054688 24.727-3.6055 35.145-10.512 10.414-6.9062 18.543-16.75 23.355-28.281h63.098c14.316-0.027343 28.039-5.7344 38.16-15.863 10.117-10.129 15.809-23.859 15.816-38.18v-296.9c-0.03125-16.68-6.6641-32.664-18.449-44.465-11.789-11.801-27.766-18.457-44.445-18.512zm41.195 360.27h0.003906c0.003907 8.9297-3.5391 17.496-9.8477 23.812-6.3086 6.3164-14.871 9.8711-23.797 9.875h-74.559c0.042968 1.6367-0.019532 3.2734-0.18359 4.9062-1.0938 10.965-6.2227 21.133-14.395 28.531-8.168 7.3984-18.793 11.496-29.812 11.504h-37.879c-11.031 0.015624-21.676-4.0742-29.863-11.469-8.1836-7.3945-13.328-17.57-14.43-28.547-0.16016-1.6289-0.22266-3.2695-0.18359-4.9062h-79.5c-8.9297-0.003906-17.492-3.5586-23.801-9.875-6.3086-6.3164-9.8516-14.883-9.8438-23.809v-296.91c-0.007812-11.301 4.4766-22.141 12.461-30.137s18.816-12.492 30.117-12.504h15.266c0.36719-2.7578 1.2812-5.4141 2.6875-7.8164l25.645-44.414 25.629-44.41c3.8008-6.5703 10.816-10.617 18.41-10.617 7.5898 0 14.605 4.0469 18.41 10.617l14.777 25.605 3.3594-5.8203h-0.003906c3.8047-6.5742 10.82-10.621 18.41-10.621 7.5938 0 14.609 4.0469 18.41 10.621l15.594 26.824 0.22266-0.36719c3.8008-6.5703 10.816-10.617 18.41-10.617 7.5898 0 14.609 4.0469 18.41 10.617l25.543 44.496 3.4609 5.9844h20.355c11.301 0.007813 22.133 4.5078 30.117 12.504 7.9844 7.9961 12.469 18.836 12.461 30.137z"/>
    <path d="m415.74 512.05h11.727c-0.046875-2.625-0.28125-5.2461-0.69531-7.8359l-19.211-117.48c-2.7031-16.512-12.727-30.918-27.27-39.188-14.543-8.2695-32.047-9.5195-47.621-3.4023-15.57 6.1211-27.539 18.957-32.559 34.918-0.625 1.9453-1.1289 3.9297-1.5078 5.9414l-23.082 117.48c-0.62109 3.1094-0.96094 6.2695-1.0156 9.4414h11.703c0.0625-2.4102 0.32812-4.8164 0.79297-7.1836l23.039-117.48h0.003906c2.625-13.523 11.484-25.016 23.898-31 12.41-5.9844 26.918-5.7539 39.137 0.61328 12.219 6.3672 20.715 18.129 22.918 31.73l19.215 117.5c0.30469 1.9609 0.48828 3.9414 0.55078 5.9258z"/>
    <path d="m342.35 379.01c4.0703 0 7.3672 4.0703 7.3672 7.3672v10.461c0 4.0703-3.3008 7.3672-7.3672 7.3672-4.0703 0-7.3672-4.0703-7.3672-7.3672v-10.461c0-4.0703 3.3008-7.3672 7.3672-7.3672z"/>
    <path d="m362.7 379.01h0.019531c4.0703 0 7.3672 4.0703 7.3672 7.3672v10.461c0 4.0703-3.3008 7.3672-7.3672 7.3672h-0.019531c-4.0703 0-7.3672-4.0703-7.3672-7.3672v-10.461c0-4.0703 3.3008-7.3672 7.3672-7.3672z"/>
    <rect x="221.94" y="344.613" width="67.936" height="16.548" style="stroke: rgb(0, 0, 0);"/>
    <rect x="412.682" y="344.238" width="67.936" height="16.548" style="stroke: rgb(0, 0, 0);"/>
  </g>
</svg>