<?xml version="1.0" encoding="UTF-8"?>
<svg width="1200pt" height="1200pt" version="1.1" viewBox="48 48 1000 1000" xmlns="http://www.w3.org/2000/svg">
 <g fill="#E0E0E0" stroke-width="2">
  <path d="m900.96 358.92h-76.801c-6.9609-50.52-50.281-89.641-102.72-89.641h-1.9219c-57.238 0-103.8 46.559-103.8 103.8v93l-18.117-0.003906c-160.2 0-292.56 120.96-310.8 276.24 0 0.35938-0.12109 0.71875-0.12109 1.0781-1.1992 10.078-1.8008 20.281-1.9219 30.719v1.1992c0 1.3203-0.12109 2.6406-0.12109 3.9609 0 8.0391 6.4805 14.52 14.52 14.52h136.8v122.52c0 8.0391 6.4805 14.52 14.52 14.52h35.281c8.0391 0 14.52-6.4805 14.52-14.52s-6.4805-14.52-14.52-14.52h-20.762v-108h47.281c19.559 0 38.762-1.9219 57.359-5.3984v127.92c0 8.0391 6.4805 14.52 14.52 14.52h35.281c8.0391 0 14.52-6.4805 14.52-14.52 0-8.0391-6.4805-14.52-14.52-14.52h-20.762l0.003907-120.36c130.68-37.559 226.68-158.16 226.68-300.84v-92.641h75.719c8.0391 0 14.52-6.4805 14.52-14.52-0.11719-8.043-6.5977-14.52-14.637-14.52zm-256.2 82.559h151.44v24.602l-151.44-0.003906zm74.637-143.16h1.9219c41.16 0 74.762 33.48 74.762 74.762v39.359h-151.32v-39.359c0-41.281 33.477-74.762 74.637-74.762zm-104.04 196.8c-6.4805 127.32-97.078 232.8-217.32 261.72 94.801-50.641 159.24-147.84 165.12-259.44 11.281-1.3203 22.801-2.1602 34.559-2.1602h17.641zm-176.88 48.957c-16.078 69.84-58.078 131.04-117.72 171.48 16.316-70.918 59.277-131.88 117.72-171.48zm95.16-41.637c-9.4805 123.84-98.16 227.04-219.12 254.88 0.12109-1.1992 0.12109-2.5195 0.23828-3.7188 85.199-48 143.16-132.6 156.84-228.84 18.121-9 37.199-16.199 57.121-21.121 1.6797-0.48047 3.3594-0.83984 4.9219-1.1992zm-21.48 262.2h-49.078c102.96-47.879 175.8-150 181.32-269.52h151.44c-7.5625 149.88-131.88 269.52-283.68 269.52z"/>
  <path d="m706.56 387.84h27.84c8.0391 0 14.52-6.4805 14.52-14.52 0-8.0391-6.4805-14.52-14.52-14.52h-27.84c-8.0391 0-14.52 6.4805-14.52 14.52 0 8.0391 6.4805 14.52 14.52 14.52z"/>
 </g>
</svg>
